<svg width="256" height="256" viewBox="0 0 256 256" fill="none" xmlns="http://www.w3.org/2000/svg">
  <path
    d="M57.5348 191.274L196.035 188.774L198.535 191.274L186.035 219.774L155.535 233.774L99.0348 236.274L73.0348 222.274L56.0348 192.274L57.5348 191.274Z"
    fill="white" />
  <path
    d="M53.0348 176.774L55.5348 187.774L198.035 185.774L199.535 176.774L198.035 170.774L179.535 172.274L53.0348 176.774Z"
    fill="#6E7F4B" />
  <path
    d="M50.0348 150.774L52.0348 171.774L197.535 168.274L229.535 144.274V129.774H216.535L202.035 137.274L186.535 85.2736L155.535 51.7736L133.035 48.7736L106.035 54.7736L78.0348 80.7736L55.0348 125.274L41.5348 114.274L31.0348 111.274L26.5348 117.774L27.5348 131.274L43.0348 148.274L50.0348 150.774Z"
    fill="#EBB578" />
  <path
    d="M104.035 149.274L130.035 143.774H158.035L160.535 147.274L155.535 152.274L138.035 156.774H121.535L108.035 154.774L104.035 149.274Z"
    fill="white" />
  <path
    d="M87.0347 127.274H94.0347L101.035 126.274L105.035 122.274L108.035 116.774V113.774H103.035L97.5347 111.774L94.0347 109.274L92.0347 102.274L87.0347 98.7741C85.6198 103.133 85.8332 109.671 85.5017 113.774C85.3937 115.11 84.3385 111.273 84.6866 118.774C85.0348 126.274 83.736 126.688 87.0347 127.274Z"
    fill="white" />
  <path
    d="M147.035 115.274C152.635 117.274 157.368 117.107 159.035 116.774L162.535 115.274L164.535 112.274L165.535 108.274L166.535 102.274L168.035 98.7741L170.035 100.774L171.035 103.774L172.035 108.274V114.774L170.035 121.774L166.535 124.774L160.035 126.274L153.535 125.274L148.535 121.774L145.535 117.274V115.274H147.035Z"
    fill="white" />
  <path
    d="M82.0348 24.2736C73.6348 27.0736 67.2015 32.7736 65.0348 35.2736L61.0348 47.2736L58.0348 59.7736V73.7736L65.0348 83.7736L66.5348 88.2736H72.5348L78.0348 81.7736L82.0348 75.7736L87.5348 67.7736V62.7736L82.0348 54.2736V24.2736Z"
    fill="#BF5E47" />
  <path
    d="M183.035 27.2736C186.635 45.2736 181.868 62.7736 179.035 69.2736L190.535 90.7736L206.035 82.2736L212.035 60.7736L206.035 45.2736L196.035 30.7736L183.035 27.2736Z"
    fill="#BF5E47" />
  <path fill-rule="evenodd" clip-rule="evenodd"
    d="M81.5348 16.7734C69.8968 19.6194 59.3668 30.7184 54.9118 44.8354C52.1968 53.4384 51.9618 68.9044 54.4188 77.1994C56.0338 82.6474 60.5028 90.7944 61.9178 90.8674C62.2568 90.8844 63.3208 91.4954 64.2818 92.2254C65.9028 93.4554 65.5748 94.5004 59.7048 106.789L53.3818 120.027L49.1768 115.005C39.8618 103.879 29.4438 103.26 24.1598 113.519C19.9508 121.691 27.8308 141.817 37.6108 147.877C45.2798 152.629 46.0348 153.986 46.0378 163.037C46.0418 172.62 48.1888 186.064 51.0398 194.349C52.1278 197.512 55.7648 204.545 59.1228 209.977C63.9018 217.709 66.9978 221.377 73.3808 226.868C84.8648 236.746 89.1858 238.655 103.236 240.059C120.787 241.813 152.289 239.156 165.224 234.831C176.988 230.897 181.739 228.109 188.657 221.079C195.05 214.584 196.778 211.499 200.561 199.835C202.754 193.074 203.416 188.823 203.798 179.058L204.278 166.781L211.407 162.622C225.648 154.313 233.035 144.844 233.035 134.899C233.035 130.465 232.596 129.242 230.112 126.758C228.408 125.054 226.124 123.835 224.636 123.835C223.233 123.835 218.187 125.874 213.423 128.365C208.66 130.857 204.678 132.769 204.576 132.615C204.473 132.461 203.624 127.835 202.689 122.335C201.753 116.835 199.813 108.305 198.377 103.38L195.766 94.4254L198.151 92.8934C206.814 87.3254 215.035 70.6974 215.035 58.7444C215.035 52.0354 206.808 35.7244 200.483 29.8944C194.893 24.7414 185.978 20.4974 180.55 20.4044C177.119 20.3454 176.488 20.6634 176.215 22.5914C176.038 23.8324 177.276 28.4304 178.965 32.8094C182.942 43.1234 183.122 50.7564 179.554 57.7974C178.189 60.4904 176.679 62.9374 176.198 63.2354C175.716 63.5324 173.901 62.0074 172.163 59.8454C167.639 54.2154 156.658 46.7044 150.688 45.1554C147.889 44.4294 141.31 43.8434 136.067 43.8524C119.437 43.8834 107.538 47.5094 96.3908 55.9454L90.2468 60.5954L89.0938 58.0664C87.2888 54.1034 85.0638 43.7384 85.0738 39.3354C85.0778 37.1354 86.2388 32.6354 87.6528 29.3354C91.3648 20.6694 91.6528 18.7604 89.4898 17.1794C87.4948 15.7204 86.1278 15.6504 81.5348 16.7734ZM80.5038 26.5854C79.8858 28.0384 78.7568 32.1154 77.5268 37.3354C77.3918 37.9084 74.8658 38.1874 71.6088 37.9894L65.9258 37.6444L68.3358 34.4894C70.9908 31.0154 78.5968 24.8354 80.2198 24.8354C80.8168 24.8354 80.9358 25.5704 80.5038 26.5854ZM196.448 36.2014C200.318 39.8624 200.423 40.1094 198.42 40.8694C197.256 41.3104 194.837 41.8204 193.045 42.0034C189.953 42.3184 189.72 42.1044 188.505 37.8354C187.801 35.3604 186.888 32.2564 186.475 30.9374L185.724 28.5384L189.043 30.4374C190.868 31.4814 194.201 34.0754 196.448 36.2014ZM74.7828 43.8974C77.2438 44.7554 78.0398 45.8004 78.9318 49.3404C79.5388 51.7494 80.0348 53.9714 80.0348 54.2784C80.0348 54.5844 77.6268 54.8354 74.6838 54.8354C70.8768 54.8354 67.9568 55.5664 64.5638 57.3704L59.7958 59.9064L60.5118 54.1204C61.3178 47.6084 62.2388 46.0934 66.5348 44.2214C70.2518 42.6014 70.9828 42.5724 74.7828 43.8974ZM203.067 47.8524C204.724 48.7394 208.621 58.5834 207.685 59.5184C207.496 59.7074 205.712 59.1804 203.721 58.3484C201.729 57.5164 197.433 56.8354 194.173 56.8354H188.248L189.251 52.8824C189.984 49.9954 190.967 48.6674 192.895 47.9614C196.446 46.6594 200.752 46.6134 203.067 47.8524ZM152.883 53.9484C158.584 56.6404 174.75 72.7154 178.584 79.5044C180.084 82.1614 182.999 87.2604 185.062 90.8354C190.541 100.332 194.76 115.976 197.533 137.085C198.063 141.119 198.487 141.834 200.346 141.825C203.002 141.813 210.772 138.258 217.481 133.985C220.201 132.253 223.463 130.835 224.731 130.835C226.731 130.835 227.032 131.33 227.013 134.585C226.958 143.927 219.139 151.96 201.535 160.758C194.451 164.299 192.275 164.875 182.535 165.785C162.143 167.69 119.748 168.952 86.5348 168.643L53.5348 168.335L52.9668 149.173L49.4068 147.475C42.7088 144.281 37.0738 138.622 33.5148 131.515C29.4598 123.418 28.3788 118.571 29.8878 115.258C31.9098 110.819 35.6908 112.016 42.4978 119.251C48.1958 125.305 54.2178 129.823 56.6038 129.831C57.1918 129.833 59.1818 126.348 61.0258 122.085C79.0098 80.5154 98.8368 57.2864 120.035 52.9514C133.236 50.2514 145.866 50.6354 152.883 53.9484ZM82.0348 61.8354C84.9538 64.7544 84.5688 66.3614 79.1858 73.7134C76.5198 77.3554 73.4978 81.7984 72.4708 83.5854C71.4438 85.3724 70.2158 86.8354 69.7418 86.8354C66.5278 86.8354 60.0348 75.0604 60.0348 69.2314C60.0348 67.5364 67.7678 61.0424 70.4018 60.5254C75.9798 59.4324 80.0958 59.8964 82.0348 61.8354ZM201.662 63.7534C203.931 64.7834 206.064 66.0734 206.401 66.6184C206.738 67.1634 205.429 70.7764 203.493 74.6464C200.008 81.6134 193.798 88.4254 191.965 87.2924C191.443 86.9694 189.2 83.4724 186.981 79.5204C184.763 75.5684 182.41 71.5524 181.753 70.5964C179.361 67.1124 187.003 62.4944 196.035 61.9674C196.86 61.9184 199.392 62.7224 201.662 63.7534ZM101.902 67.8434C93.6698 72.1934 82.9388 89.5004 79.5848 103.835C75.1978 122.586 79.6498 133.864 91.4198 133.813C101.236 133.771 106.301 129.97 114.154 116.751C123.549 100.937 126.577 84.2914 121.785 74.8054C117.592 66.5044 109.679 63.7344 101.902 67.8434ZM143.339 68.7324C139.062 71.4194 137.431 74.1304 135.448 81.8494C134.239 86.5584 133.938 90.5654 134.352 96.4724C135.457 112.248 139.669 123.166 146.729 128.551C149.845 130.927 151.503 131.386 158.053 131.684C164.302 131.968 166.479 131.649 169.776 129.967C177.359 126.099 180.85 113.737 177.601 102.26C174.617 91.7194 167.595 78.8194 161.637 72.9364C156.836 68.1954 155.617 67.5074 151.362 67.1404C147.733 66.8274 145.742 67.2224 143.339 68.7324ZM169.899 102.734C171.468 107.429 171.321 115.215 169.583 119.373C166.396 127.001 153.669 126.748 148.114 118.946C145.32 115.022 145.491 114.502 148.985 116.309C155.024 119.432 162.684 117.349 165.55 111.805C166.402 110.158 167.165 106.33 167.245 103.299C167.399 97.4214 168.074 97.2774 169.899 102.734ZM90.0828 105.015C91.7198 111.092 96.1248 114.835 101.641 114.835C104.058 114.835 106.035 115.13 106.035 115.491C106.035 117.051 100.685 122.965 98.0328 124.336C94.1688 126.334 88.6268 126.254 86.9068 124.176C85.2208 122.137 85.2608 113.231 86.9888 106.025C87.6738 103.17 88.3968 100.835 88.5958 100.835C88.7948 100.835 89.4638 102.716 90.0828 105.015ZM89.6698 137.908C85.5978 141.11 86.0738 145.432 91.0718 150.634C93.2928 152.944 95.8408 154.835 96.7348 154.835C97.6288 154.835 100.424 156.158 102.947 157.776C108.915 161.602 114.396 162.788 126.035 162.776C142.987 162.757 159.413 158.319 165.155 152.207C167.794 149.399 168.207 143.953 165.985 141.274C162.965 137.632 158.659 136.835 142.003 136.835C128.603 136.835 123.867 137.262 113.721 139.385C107.019 140.787 100.246 142.204 98.6708 142.533C96.1308 143.063 95.8798 142.899 96.4548 141.088C96.8578 139.817 96.4968 138.44 95.4978 137.44C93.4238 135.367 92.8398 135.414 89.6698 137.908ZM151.85 145.585C151.65 146.64 150.43 147.461 148.776 147.651C144.507 148.144 145.554 149.874 149.886 149.484C150.988 149.385 151.765 150.419 152.535 150.273C153.371 150.115 153.069 149.124 153.535 148.773C158.035 147.896 156.535 146.273 153.535 146.773C151.154 145.032 152.959 143.72 156.316 144.618C160.244 145.668 160.033 146.991 155.535 149.523C149.446 152.951 138.801 155.007 126.535 155.124C114.961 155.235 109.465 154.073 106.603 150.91C104.996 149.135 105.224 148.994 112.232 147.436C126.037 144.368 128.566 144.054 140.358 143.945C151.111 143.845 152.152 143.993 151.85 145.585ZM136.035 148.335C136.035 149.341 135.028 149.835 132.976 149.835C131.294 149.835 130.169 150.243 130.477 150.741C130.785 151.239 131.939 151.411 133.041 151.123C134.144 150.835 136.035 150.773 136.572 151.865C137.831 152.911 138.035 152.273 138.535 150.773C138.535 150.773 139.035 150.773 140.035 150.273C141.244 149.63 141.869 149.608 139.468 149.012C138.68 148.834 138.035 148.271 138.035 147.762C138.035 147.252 137.585 146.835 137.035 146.835C136.485 146.835 136.035 147.51 136.035 148.335ZM119.035 148.835C119.035 149.385 117.46 149.835 115.535 149.835C113.61 149.835 112.035 150.285 112.035 150.835C112.035 151.385 113.52 151.835 115.335 151.835C117.15 151.835 118.766 151.33 119.371 151.935C119.535 153.273 121.035 153.273 121.035 151.773C121.393 151.415 123.376 151.365 123.68 151.123C125.131 149.971 124.662 149.773 123.035 149.773C121.935 149.773 121.035 149.385 121.035 148.835C121.035 148.285 120.585 147.835 120.035 147.835C119.485 147.835 119.035 148.285 119.035 148.835ZM197.035 176.245V180.654L190.285 181.704C177.109 183.755 143.081 185.439 119.535 185.207C112.385 185.136 95.1928 185.024 81.3298 184.957L56.1258 184.835L55.4598 181.288C55.0938 179.338 54.9978 177.539 55.2458 177.291C55.4938 177.043 72.0858 176.626 92.1158 176.364C141.833 175.716 168.397 174.821 182.035 173.337C188.36 172.649 194.322 172.029 195.285 171.96C196.706 171.859 197.035 172.664 197.035 176.245ZM193.943 195.924C192.863 199.822 190.911 205.119 189.607 207.693C186.567 213.692 178.47 221.261 171.772 224.367L166.535 226.795L165.696 223.565C165.234 221.789 162.478 214.935 159.572 208.335C151.546 190.108 150.516 192.244 167.762 191.357C175.887 190.939 184.785 190.261 187.535 189.85C196.751 188.472 196.163 187.914 193.943 195.924ZM94.8448 192.659L99.1558 193.335L92.1448 207.335C82.3098 226.973 83.4158 225.975 77.3498 220.707C70.5318 214.785 56.9848 194.218 58.7448 192.459C59.5718 191.631 89.3448 191.797 94.8448 192.659ZM146.044 195.207C146.049 195.828 148.733 202.32 152.008 209.634C155.283 216.948 158.242 224.422 158.584 226.243C159.192 229.487 159.123 229.565 155.035 230.219C150.722 230.909 116.238 233.835 112.424 233.835C110.393 233.835 110.242 233.27 109.833 224.085C109.491 216.409 108.806 212.881 106.614 207.499C104.02 201.132 103.925 200.412 105.222 196.999L106.615 193.335L125.075 192.835C142.781 192.355 146.024 192.722 146.044 195.207ZM102.077 217.537C103.142 222.669 102.982 231.221 101.798 232.405C101.196 233.007 91.9708 231.041 90.1798 229.928C89.0468 229.225 89.0648 228.695 90.2878 226.711C91.0938 225.404 93.4188 221.288 95.4548 217.564C97.4908 213.839 99.5488 211.035 100.029 211.331C100.508 211.627 101.43 214.42 102.077 217.537Z"
    fill="#6A5146" />
  <path
    d="M120.032 153.48C120.032 153.376 119.932 153.334 119.932 153.231V152.287C119.932 151.653 119.966 151.005 119.966 150.364C119.966 149.525 119.999 147.006 119.999 147.845M111.711 150.918C110.661 150.918 113.809 150.879 114.859 150.879C116.133 150.879 117.395 150.723 118.667 150.723H121.902C122.744 150.723 123.579 150.645 124.412 150.645M119.957 147.848V149.435C119.957 149.752 119.902 150.117 119.959 150.428C120.045 150.9 119.925 151.4 119.998 151.876C120.065 152.308 120.074 152.742 120.074 153.185M119.957 150.488C119.957 149.627 119.996 148.743 119.996 147.87M137.27 146.698V152.755M129.727 150.773C130.651 150.773 131.523 150.523 132.444 150.523H133.807C134.129 150.523 134.441 150.44 134.764 150.44C135.078 150.44 135.392 150.472 135.703 150.375C135.952 150.298 136.203 150.405 136.452 150.292C136.579 150.234 136.724 150.273 136.854 150.273C137.094 150.273 137.329 150.19 137.569 150.19C138.171 150.19 138.768 150.107 139.372 150.107C139.846 150.107 140.343 150.136 140.807 149.959C141.091 149.85 141.958 149.773 141.669 149.773M145.204 149.199C146.023 149.199 146.769 148.925 147.579 148.925C148.162 148.925 148.739 148.886 149.322 148.886C149.752 148.886 150.112 148.773 150.521 148.671C150.993 148.553 151.469 148.441 151.934 148.291C152.128 148.229 152.395 148.187 152.599 148.183C152.89 148.176 153.164 148.126 153.452 148.107C153.883 148.078 154.32 147.994 154.74 147.9C154.973 147.848 155.683 147.753 155.443 147.753M151.887 145.642V149.863"
    stroke="#6A5146" stroke-width="3" stroke-linecap="round" />
</svg>
