<svg width="256" height="256" viewBox="0 0 256 256" fill="none" xmlns="http://www.w3.org/2000/svg">
<path d="M0 128C0 57.3076 57.3076 0 128 0V0C198.692 0 256 57.3076 256 128V128C256 198.692 198.692 256 128 256V256C57.3076 256 0 198.692 0 128V128Z" fill="#17191E"/>
<g clip-path="url(#clip0_17_7)">
<path d="M106.924 182.02C99.9286 175.619 97.8867 162.17 100.801 152.426C105.854 158.569 112.856 160.516 120.108 161.614C131.304 163.309 142.299 162.675 152.7 157.552C153.889 156.966 154.989 156.186 156.289 155.396C157.265 158.231 157.519 161.092 157.178 164.004C156.349 171.097 152.823 176.575 147.215 180.728C144.973 182.39 142.6 183.875 140.284 185.441C133.169 190.255 131.244 195.9 133.917 204.111C133.981 204.312 134.038 204.512 134.181 205C130.548 203.372 127.895 201.002 125.873 197.886C123.737 194.598 122.721 190.96 122.668 187.024C122.641 185.109 122.641 183.176 122.384 181.288C121.755 176.684 119.596 174.622 115.529 174.504C111.355 174.382 108.053 176.965 107.177 181.033C107.111 181.345 107.014 181.654 106.917 182.017L106.924 182.02Z" fill="white"/>
<path d="M106.924 182.02C99.9286 175.619 97.8867 162.17 100.801 152.426C105.854 158.569 112.856 160.516 120.108 161.614C131.304 163.309 142.299 162.675 152.7 157.552C153.889 156.966 154.989 156.186 156.289 155.396C157.265 158.231 157.519 161.092 157.178 164.004C156.349 171.097 152.823 176.575 147.215 180.728C144.973 182.39 142.6 183.875 140.284 185.441C133.169 190.255 131.244 195.9 133.917 204.111C133.981 204.312 134.038 204.512 134.181 205C130.548 203.372 127.895 201.002 125.873 197.886C123.737 194.598 122.721 190.96 122.668 187.024C122.641 185.109 122.641 183.176 122.384 181.288C121.755 176.684 119.596 174.622 115.529 174.504C111.355 174.382 108.053 176.965 107.177 181.033C107.111 181.345 107.014 181.654 106.917 182.017L106.924 182.02Z" fill="url(#paint0_linear_17_7)"/>
<path d="M67 150.803C67 150.803 87.7131 140.702 108.484 140.702L124.145 92.1838C124.731 89.8375 126.443 88.2428 128.375 88.2428C130.308 88.2428 132.02 89.8375 132.606 92.1838L148.267 140.702C172.867 140.702 189.751 150.803 189.751 150.803C189.751 150.803 154.568 54.8562 154.499 54.6637C153.49 51.827 151.785 50 149.487 50H107.268C104.97 50 103.334 51.827 102.255 54.6637C102.179 54.8526 67 150.803 67 150.803Z" fill="white"/>
</g>
<defs>
<linearGradient id="paint0_linear_17_7" x1="99.5158" y1="205" x2="167.083" y2="173.109" gradientUnits="userSpaceOnUse">
<stop stop-color="#D83333"/>
<stop offset="1" stop-color="#F041FF"/>
</linearGradient>
<clipPath id="clip0_17_7">
<rect width="123" height="155" fill="white" transform="translate(67 50)"/>
</clipPath>
</defs>
</svg>
