<svg width="254" height="256" viewBox="0 0 254 256" fill="none" xmlns="http://www.w3.org/2000/svg">
<g clip-path="url(#clip0_17_29)">
<path d="M0 128C0 57.8598 56.8598 0 127 0V0C197.14 0 254 57.8598 254 128V128C254 198.14 197.14 256 127 256V256C56.8598 256 0 198.14 0 128V128Z" fill="white"/>
<path d="M40.2 116.1C39.8 116.1 39.7 115.9 39.9 115.6L42 112.9C42.2 112.6 42.7 112.4 43.1 112.4H78.8C79.2001 112.4 79.3 112.7 79.1 113L77.4 115.6C77.2 115.9 76.7 116.2 76.4 116.2L40.2 116.1Z" fill="#00ACD7"/>
<path d="M25.1 125.3C24.7 125.3 24.6 125.1 24.8 124.8L26.9 122.1C27.1 121.8 27.6 121.6 28 121.6H73.5999C74 121.6 74.1999 121.9 74.0999 122.2L73.3 124.6C73.2 125 72.8 125.2 72.4 125.2L25.1 125.3Z" fill="#00ACD7"/>
<path d="M49.2999 134.5C48.8999 134.5 48.7999 134.2 48.9999 133.9L50.3999 131.4C50.5999 131.1 50.9999 130.8 51.3999 130.8H71.3999C71.7999 130.8 71.9999 131.1 71.9999 131.5L71.7999 133.9C71.7999 134.3 71.3999 134.6 71.0999 134.6L49.2999 134.5Z" fill="#00ACD7"/>
<path d="M153.1 114.3C146.8 115.9 142.5 117.1 136.3 118.7C134.8 119.1 134.7 119.2 133.4 117.7C131.9 116 130.8 114.9 128.7 113.9C122.4 110.8 116.3 111.7 110.6 115.4C103.8 119.8 100.3 126.3 100.4 134.4C100.5 142.4 106 149 113.9 150.1C120.7 151 126.4 148.6 130.9 143.5C131.8 142.4 132.6 141.2 133.6 139.8C130 139.8 125.5 139.8 114.3 139.8C112.2 139.8 111.7 138.5 112.4 136.8C113.7 133.7 116.1 128.5 117.5 125.9C117.8 125.3 118.5 124.3 120 124.3C125.1 124.3 143.9 124.3 156.4 124.3C156.2 127 156.2 129.7 155.8 132.4C154.7 139.6 152 146.2 147.6 152C140.4 161.5 131 167.4 119.1 169C109.3 170.3 100.2 168.4 92.1999 162.4C84.7999 156.8 80.5999 149.4 79.4999 140.2C78.1999 129.3 81.3999 119.5 87.9999 110.9C95.0999 101.6 104.5 95.7 116 93.6C125.4 91.9 134.4 93.0001 142.5 98.5001C147.8 102 151.6 106.8 154.1 112.6C154.7 113.5 154.3 114 153.1 114.3Z" fill="#00ACD7"/>
<path d="M186.2 169.6C177.1 169.4 168.8 166.8 161.8 160.8C155.9 155.7 152.2 149.2 151 141.5C149.2 130.2 152.3 120.2 159.1 111.3C166.4 101.7 175.2 96.7001 187.1 94.6001C197.3 92.8001 206.9 93.8001 215.6 99.7001C223.5 105.1 228.4 112.4 229.7 122C231.4 135.5 227.5 146.5 218.2 155.9C211.6 162.6 203.5 166.8 194.2 168.7C191.5 169.2 188.8 169.3 186.2 169.6ZM210 129.2C209.9 127.9 209.9 126.9 209.7 125.9C207.9 116 198.8 110.4 189.3 112.6C180 114.7 174 120.6 171.8 130C170 137.8 173.8 145.7 181 148.9C186.5 151.3 192 151 197.3 148.3C205.2 144.2 209.5 137.8 210 129.2Z" fill="#00ACD7"/>
</g>
<defs>
<clipPath id="clip0_17_29">
<path d="M0 128C0 57.8598 56.8598 0 127 0V0C197.14 0 254 57.8598 254 128V128C254 198.14 197.14 256 127 256V256C56.8598 256 0 198.14 0 128V128Z" fill="white"/>
</clipPath>
</defs>
</svg>
