<svg xmlns="http://www.w3.org/2000/svg" width="256" height="256" viewBox="0 0 256 256" fill="none">
  <path fill="#fff" d="M0 0h256v256H0z" />
  <path fill="#fff" d="m57.535 191.274 138.5-2.5 2.5 2.5-12.5 28.5-30.5 14-56.5 2.5-26-14-17-30 1.5-1Z" />
  <path fill="#6E7F4B" d="m53.035 176.774 2.5 11 142.5-2 1.5-9-1.5-6-18.5 1.5-126.5 4.5Z" />
  <path fill="#EBB578"
    d="m50.035 150.774 2 21 145.5-3.5 32-24v-14.5h-13l-14.5 7.5-15.5-52-31-33.5-22.5-3-27 6-28 26-23 44.5-13.5-11-10.5-3-4.5 6.5 1 13.5 15.5 17 7 2.5Z" />
  <path fill="#fff"
    d="m104.035 149.274 26-5.5h28l2.5 3.5-5 5-17.5 4.5h-16.5l-13.5-2-4-5.5ZM87.035 127.274h7l7-1 4-4 3-5.5v-3h-5l-5.5-2-3.5-2.5-2-7-5-3.5c-1.415 4.359-1.202 10.897-1.533 15-.108 1.336-1.163-2.501-.815 5 .348 7.5-.951 7.914 2.348 8.5ZM147.035 115.274c5.6 2 10.333 1.833 12 1.5l3.5-1.5 2-3 1-4 1-6 1.5-3.5 2 2 1 3 1 4.5v6.5l-2 7-3.5 3-6.5 1.5-6.5-1-5-3.5-3-4.5v-2h1.5Z" />
  <path fill="#BF5E47"
    d="M82.035 24.274c-8.4 2.8-14.834 8.5-17 11l-4 12-3 12.5v14l7 10 1.5 4.5h6l5.5-6.5 4-6 5.5-8v-5l-5.5-8.5v-30ZM183.035 27.274c3.6 18-1.167 35.5-4 42l11.5 21.5 15.5-8.5 6-21.5-6-15.5-10-14.5-13-3.5Z" />
  <path fill="#6A5146" fill-rule="evenodd"
    d="M81.535 16.773C69.897 19.62 59.367 30.718 54.912 44.835c-2.715 8.603-2.95 24.07-.493 32.364 1.615 5.448 6.084 13.595 7.499 13.668.339.017 1.403.628 2.364 1.358 1.62 1.23 1.293 2.275-4.577 14.564l-6.323 13.238-4.205-5.022c-9.315-11.126-19.733-11.745-25.017-1.486-4.21 8.172 3.67 28.298 13.45 34.358 7.67 4.752 8.425 6.109 8.428 15.16.004 9.583 2.15 23.027 5.002 31.312 1.088 3.163 4.725 10.196 8.083 15.628 4.779 7.732 7.875 11.4 14.258 16.891 11.484 9.878 15.805 11.787 29.855 13.191 17.551 1.754 49.053-.903 61.988-5.228 11.764-3.934 16.515-6.722 23.433-13.752 6.393-6.495 8.121-9.58 11.904-21.244 2.193-6.761 2.855-11.012 3.237-20.777l.48-12.277 7.129-4.159c14.241-8.309 21.628-17.778 21.628-27.723 0-4.434-.439-5.657-2.923-8.141-1.704-1.704-3.988-2.923-5.476-2.923-1.403 0-6.449 2.039-11.213 4.53-4.763 2.492-8.745 4.404-8.847 4.25-.103-.154-.952-4.78-1.887-10.28-.936-5.5-2.876-14.03-4.312-18.955l-2.611-8.955 2.385-1.532c8.663-5.568 16.884-22.196 16.884-34.149 0-6.709-8.227-23.02-14.552-28.85-5.59-5.153-14.505-9.397-19.933-9.49-3.431-.059-4.062.26-4.335 2.187-.177 1.241 1.061 5.84 2.75 10.218 3.977 10.314 4.157 17.947.589 24.988-1.365 2.693-2.875 5.14-3.356 5.438-.482.297-2.297-1.228-4.035-3.39-4.524-5.63-15.505-13.14-21.475-14.69-2.799-.726-9.378-1.312-14.621-1.303-16.63.031-28.529 3.657-39.676 12.093l-6.144 4.65-1.153-2.529c-1.805-3.963-4.03-14.328-4.02-18.73.004-2.2 1.165-6.7 2.579-10 3.712-8.667 4-10.576 1.837-12.157-1.995-1.459-3.362-1.529-7.955-.406Zm-1.031 9.812c-.618 1.453-1.747 5.53-2.977 10.75-.135.573-2.661.852-5.918.654l-5.683-.345 2.41-3.155c2.655-3.474 10.26-9.654 11.884-9.654.597 0 .716.735.284 1.75Zm115.944 9.616c3.87 3.661 3.975 3.908 1.972 4.668-1.164.441-3.583.951-5.375 1.134-3.092.315-3.325.101-4.54-4.168a359.54 359.54 0 0 0-2.03-6.898l-.751-2.399 3.319 1.9c1.825 1.043 5.158 3.637 7.405 5.763ZM74.783 43.897c2.46.858 3.257 1.903 4.149 5.443.607 2.41 1.103 4.631 1.103 4.938 0 .306-2.408.557-5.351.557-3.807 0-6.727.731-10.12 2.535l-4.768 2.536.716-5.786c.806-6.512 1.727-8.027 6.023-9.899 3.717-1.62 4.448-1.649 8.248-.324Zm128.284 3.955c1.657.887 5.554 10.731 4.618 11.666-.189.19-1.973-.338-3.964-1.17-1.992-.832-6.288-1.513-9.548-1.513h-5.925l1.003-3.953c.733-2.887 1.716-4.215 3.644-4.92 3.551-1.303 7.857-1.349 10.172-.11Zm-50.184 6.096c5.701 2.692 21.867 18.767 25.701 25.556 1.5 2.657 4.415 7.756 6.478 11.331 5.479 9.497 9.698 25.141 12.471 46.25.53 4.034.954 4.749 2.813 4.74 2.656-.012 10.426-3.567 17.135-7.84 2.72-1.732 5.982-3.15 7.25-3.15 2 0 2.301.495 2.282 3.75-.055 9.342-7.874 17.375-25.478 26.173-7.084 3.541-9.26 4.117-19 5.027-20.392 1.905-62.787 3.167-96 2.858l-33-.308-.568-19.162-3.56-1.698c-6.698-3.194-12.333-8.853-15.892-15.96-4.055-8.097-5.136-12.944-3.627-16.257 2.022-4.439 5.803-3.242 12.61 3.993 5.698 6.054 11.72 10.572 14.106 10.58.588.002 2.578-3.483 4.422-7.746 17.984-41.57 37.81-64.799 59.009-69.134 13.201-2.7 25.831-2.316 32.848.997Zm-70.848 7.887c2.919 2.92 2.534 4.526-2.85 11.878-2.665 3.642-5.687 8.085-6.714 9.872-1.027 1.787-2.255 3.25-2.73 3.25-3.213 0-9.706-11.775-9.706-17.604 0-1.695 7.733-8.189 10.367-8.706 5.578-1.093 9.694-.629 11.633 1.31Zm119.627 1.918c2.269 1.03 4.402 2.32 4.739 2.865.337.545-.972 4.158-2.908 8.028-3.485 6.967-9.695 13.78-11.528 12.646-.522-.323-2.765-3.82-4.984-7.772-2.218-3.952-4.571-7.968-5.228-8.924-2.392-3.484 5.25-8.102 14.282-8.629.825-.049 3.357.755 5.627 1.786Zm-99.76 4.09c-8.232 4.35-18.963 21.657-22.317 35.992-4.387 18.751.065 30.029 11.835 29.978 9.816-.042 14.881-3.843 22.734-17.062 9.395-15.814 12.423-32.46 7.631-41.946-4.193-8.3-12.106-11.07-19.883-6.962Zm41.437.89c-4.277 2.686-5.908 5.397-7.891 13.116-1.209 4.71-1.51 8.716-1.096 14.623 1.105 15.776 5.317 26.694 12.377 32.079 3.116 2.376 4.774 2.835 11.324 3.133 6.249.284 8.426-.035 11.723-1.717 7.583-3.868 11.074-16.23 7.825-27.707-2.984-10.54-10.006-23.44-15.964-29.324-4.801-4.74-6.02-5.429-10.275-5.796-3.629-.313-5.62.082-8.023 1.592Zm26.56 34.001c1.569 4.695 1.422 12.481-.316 16.639-3.187 7.628-15.914 7.375-21.469-.427-2.794-3.924-2.623-4.444.871-2.637 6.039 3.123 13.699 1.04 16.565-4.504.852-1.647 1.615-5.475 1.695-8.506.154-5.878.829-6.022 2.654-.565Zm-79.816 2.281c1.637 6.077 6.042 9.82 11.558 9.82 2.417 0 4.394.295 4.394.656 0 1.56-5.35 7.474-8.002 8.845-3.864 1.998-9.406 1.918-11.126-.16-1.686-2.039-1.646-10.945.082-18.151.685-2.855 1.408-5.19 1.607-5.19.199 0 .868 1.881 1.487 4.18Zm-.413 32.893c-4.072 3.202-3.596 7.524 1.402 12.726 2.22 2.31 4.769 4.201 5.663 4.201.894 0 3.689 1.323 6.212 2.941 5.968 3.826 11.449 5.012 23.088 5 16.952-.019 33.378-4.457 39.12-10.569 2.639-2.808 3.052-8.254.83-10.933-3.02-3.642-7.326-4.439-23.982-4.439-13.4 0-18.136.427-28.282 2.55l-15.05 3.148c-2.54.53-2.791.366-2.216-1.445.403-1.271.042-2.648-.957-3.648-2.074-2.073-2.658-2.026-5.828.468Zm62.18 7.677c-.2 1.055-1.42 1.876-3.074 2.066-4.269.493-3.222 2.223 1.11 1.833 1.102-.099 1.879.935 2.649.789.836-.158.534-1.149 1-1.5 4.5-.877 3-2.5 0-2-2.381-1.741-.576-3.053 2.781-2.155 3.928 1.05 3.717 2.373-.781 4.905-6.089 3.428-16.734 5.484-29 5.601-11.574.111-17.07-1.051-19.932-4.214-1.607-1.775-1.379-1.916 5.629-3.474 13.805-3.068 16.334-3.382 28.126-3.491 10.753-.1 11.794.048 11.492 1.64Zm-15.815 2.75c0 1.006-1.007 1.5-3.059 1.5-1.682 0-2.807.408-2.499.906.308.498 1.462.67 2.564.382 1.103-.288 2.994-.35 3.531.742 1.259 1.046 1.463.408 1.963-1.092 0 0 .5 0 1.5-.5 1.209-.643 1.834-.665-.567-1.261-.788-.178-1.433-.741-1.433-1.25 0-.51-.45-.927-1-.927s-1 .675-1 1.5Zm-17 .5c0 .55-1.575 1-3.5 1s-3.5.45-3.5 1 1.485 1 3.3 1c1.815 0 3.431-.505 4.036.1.164 1.338 1.664 1.338 1.664-.162.358-.358 2.341-.408 2.645-.65 1.451-1.152.982-1.35-.645-1.35-1.1 0-2-.388-2-.938 0-.55-.45-1-1-1s-1 .45-1 1Zm78 27.41v4.409l-6.75 1.05c-13.176 2.051-47.204 3.735-70.75 3.503-7.15-.071-24.342-.183-38.205-.25l-25.204-.122-.666-3.547c-.366-1.95-.462-3.749-.214-3.997.248-.248 16.84-.665 36.87-.927 49.717-.648 76.281-1.543 89.919-3.027 6.325-.688 12.287-1.308 13.25-1.377 1.421-.101 1.75.704 1.75 4.285Zm-3.092 19.679c-1.08 3.898-3.032 9.195-4.336 11.769-3.04 5.999-11.137 13.568-17.835 16.674l-5.237 2.428-.839-3.23c-.462-1.776-3.218-8.63-6.124-15.23-8.026-18.227-9.056-16.091 8.19-16.978 8.125-.418 17.023-1.096 19.773-1.507 9.216-1.378 8.628-1.936 6.408 6.074Zm-99.098-3.265 4.31.676-7.01 14c-9.835 19.638-8.73 18.64-14.795 13.372-6.818-5.922-20.365-26.489-18.605-28.248.827-.828 30.6-.662 36.1.2Zm51.199 2.548c.005.621 2.689 7.113 5.964 14.427 3.275 7.314 6.234 14.788 6.576 16.609.608 3.244.539 3.322-3.549 3.976-4.313.69-38.797 3.616-42.611 3.616-2.031 0-2.182-.565-2.591-9.75-.342-7.676-1.027-11.204-3.219-16.586-2.594-6.367-2.689-7.087-1.392-10.5l1.393-3.664 18.46-.5c17.706-.48 20.949-.113 20.969 2.372Zm-43.967 22.33c1.065 5.132.905 13.684-.279 14.868-.602.602-9.827-1.364-11.618-2.477-1.133-.703-1.115-1.233.108-3.217.806-1.307 3.13-5.423 5.167-9.147 2.036-3.725 4.094-6.529 4.574-6.233.479.296 1.401 3.089 2.048 6.206Z"
    clip-rule="evenodd" />
  <path stroke="#6A5146" stroke-linecap="round" stroke-width="3"
    d="M120.032 153.48c0-.104-.1-.146-.1-.249v-.944c0-.634.034-1.282.034-1.923 0-.839.033-3.358.033-2.519m-8.288 3.073c-1.05 0 2.098-.039 3.148-.039 1.274 0 2.536-.156 3.808-.156h3.235c.842 0 1.677-.078 2.51-.078m-4.455-2.797v1.587c0 .317-.055.682.002.993.086.472-.034.972.039 1.448a8.5 8.5 0 0 1 .076 1.309m-.117-2.697c0-.861.039-1.745.039-2.618m17.274-1.172v6.057m-7.543-1.982c.924 0 1.796-.25 2.717-.25h1.363c.322 0 .634-.083.957-.083.314 0 .628.032.939-.065.249-.077.5.03.749-.083.127-.058.272-.019.402-.019.24 0 .475-.083.715-.083.602 0 1.199-.083 1.803-.083.474 0 .971.029 1.435-.148.284-.109 1.151-.186.862-.186m3.535-.574c.819 0 1.565-.274 2.375-.274.583 0 1.16-.039 1.743-.039.43 0 .79-.113 1.199-.215.472-.118.948-.23 1.413-.38.194-.062.461-.104.665-.108.291-.007.565-.057.853-.076a8.617 8.617 0 0 0 1.288-.207c.233-.052.943-.147.703-.147m-3.556-2.111v4.221" />
</svg>
